<mxfile host="app.diagrams.net" modified="2022-12-21T21:23:51.762Z" agent="5.0 (Windows NT 10.0; Win64; x64) AppleWebKit/537.36 (KHTML, like Gecko) Chrome/108.0.0.0 Safari/537.36" version="20.7.4" etag="C5MpNX775zDy5pRWn0uc" type="github">
  <diagram id="FmJA5h8646xX3bD_RhMh" name="Страница 1">
    <mxGraphModel dx="1194" dy="762" grid="1" gridSize="10" guides="1" tooltips="1" connect="1" arrows="1" fold="1" page="1" pageScale="1" pageWidth="827" pageHeight="1169" math="0" shadow="0">
      <root>
        <mxCell id="0" />
        <mxCell id="1" parent="0" />
        <mxCell id="hnTLKuGMeIEtejeQrIIj-1" value="Builder" style="swimlane;fontStyle=0;childLayout=stackLayout;horizontal=1;startSize=30;horizontalStack=0;resizeParent=1;resizeParentMax=0;resizeLast=0;collapsible=1;marginBottom=0;whiteSpace=wrap;html=1;direction=east;" vertex="1" parent="1">
          <mxGeometry x="540" y="130" width="120" height="60" as="geometry" />
        </mxCell>
        <mxCell id="hnTLKuGMeIEtejeQrIIj-27" style="edgeStyle=orthogonalEdgeStyle;rounded=0;orthogonalLoop=1;jettySize=auto;html=1;exitX=0.5;exitY=0;exitDx=0;exitDy=0;entryX=0.5;entryY=1.033;entryDx=0;entryDy=0;entryPerimeter=0;" edge="1" parent="1" source="hnTLKuGMeIEtejeQrIIj-5" target="hnTLKuGMeIEtejeQrIIj-18">
          <mxGeometry relative="1" as="geometry" />
        </mxCell>
        <mxCell id="hnTLKuGMeIEtejeQrIIj-5" value="WorkPlace" style="swimlane;fontStyle=0;childLayout=stackLayout;horizontal=1;startSize=30;horizontalStack=0;resizeParent=1;resizeParentMax=0;resizeLast=0;collapsible=1;marginBottom=0;whiteSpace=wrap;html=1;" vertex="1" parent="1">
          <mxGeometry x="360" y="360" width="120" height="60" as="geometry" />
        </mxCell>
        <mxCell id="hnTLKuGMeIEtejeQrIIj-6" value="process()" style="text;strokeColor=none;fillColor=none;align=left;verticalAlign=middle;spacingLeft=4;spacingRight=4;overflow=hidden;points=[[0,0.5],[1,0.5]];portConstraint=eastwest;rotatable=0;whiteSpace=wrap;html=1;" vertex="1" parent="hnTLKuGMeIEtejeQrIIj-5">
          <mxGeometry y="30" width="120" height="30" as="geometry" />
        </mxCell>
        <mxCell id="hnTLKuGMeIEtejeQrIIj-28" style="edgeStyle=orthogonalEdgeStyle;rounded=0;orthogonalLoop=1;jettySize=auto;html=1;exitX=0.5;exitY=0;exitDx=0;exitDy=0;entryX=0.5;entryY=1.033;entryDx=0;entryDy=0;entryPerimeter=0;" edge="1" parent="1" source="hnTLKuGMeIEtejeQrIIj-9" target="hnTLKuGMeIEtejeQrIIj-6">
          <mxGeometry relative="1" as="geometry" />
        </mxCell>
        <mxCell id="hnTLKuGMeIEtejeQrIIj-9" value="App" style="swimlane;fontStyle=0;childLayout=stackLayout;horizontal=1;startSize=30;horizontalStack=0;resizeParent=1;resizeParentMax=0;resizeLast=0;collapsible=1;marginBottom=0;whiteSpace=wrap;html=1;" vertex="1" parent="1">
          <mxGeometry x="360" y="480" width="120" height="60" as="geometry" />
        </mxCell>
        <mxCell id="hnTLKuGMeIEtejeQrIIj-10" value="main(String[])" style="text;strokeColor=none;fillColor=none;align=left;verticalAlign=middle;spacingLeft=4;spacingRight=4;overflow=hidden;points=[[0,0.5],[1,0.5]];portConstraint=eastwest;rotatable=0;whiteSpace=wrap;html=1;" vertex="1" parent="hnTLKuGMeIEtejeQrIIj-9">
          <mxGeometry y="30" width="120" height="30" as="geometry" />
        </mxCell>
        <mxCell id="hnTLKuGMeIEtejeQrIIj-11" value="Director" style="swimlane;fontStyle=0;childLayout=stackLayout;horizontal=1;startSize=30;horizontalStack=0;resizeParent=1;resizeParentMax=0;resizeLast=0;collapsible=1;marginBottom=0;whiteSpace=wrap;html=1;" vertex="1" parent="1">
          <mxGeometry x="560" y="360" width="120" height="60" as="geometry" />
        </mxCell>
        <mxCell id="hnTLKuGMeIEtejeQrIIj-12" value="checkJob(boolean, Job)" style="text;strokeColor=none;fillColor=none;align=left;verticalAlign=middle;spacingLeft=4;spacingRight=4;overflow=hidden;points=[[0,0.5],[1,0.5]];portConstraint=eastwest;rotatable=0;whiteSpace=wrap;html=1;" vertex="1" parent="hnTLKuGMeIEtejeQrIIj-11">
          <mxGeometry y="30" width="120" height="30" as="geometry" />
        </mxCell>
        <mxCell id="hnTLKuGMeIEtejeQrIIj-13" value="Job" style="swimlane;fontStyle=0;childLayout=stackLayout;horizontal=1;startSize=30;horizontalStack=0;resizeParent=1;resizeParentMax=0;resizeLast=0;collapsible=1;marginBottom=0;whiteSpace=wrap;html=1;" vertex="1" parent="1">
          <mxGeometry x="160" y="360" width="120" height="60" as="geometry" />
        </mxCell>
        <mxCell id="hnTLKuGMeIEtejeQrIIj-14" value="makeJob()" style="text;strokeColor=none;fillColor=none;align=left;verticalAlign=middle;spacingLeft=4;spacingRight=4;overflow=hidden;points=[[0,0.5],[1,0.5]];portConstraint=eastwest;rotatable=0;whiteSpace=wrap;html=1;" vertex="1" parent="hnTLKuGMeIEtejeQrIIj-13">
          <mxGeometry y="30" width="120" height="30" as="geometry" />
        </mxCell>
        <mxCell id="hnTLKuGMeIEtejeQrIIj-15" value="Builder" style="swimlane;fontStyle=0;childLayout=stackLayout;horizontal=1;startSize=30;horizontalStack=0;resizeParent=1;resizeParentMax=0;resizeLast=0;collapsible=1;marginBottom=0;whiteSpace=wrap;html=1;" vertex="1" parent="1">
          <mxGeometry x="360" y="180" width="120" height="120" as="geometry" />
        </mxCell>
        <mxCell id="hnTLKuGMeIEtejeQrIIj-16" value="doJob(Job)" style="text;strokeColor=none;fillColor=none;align=left;verticalAlign=middle;spacingLeft=4;spacingRight=4;overflow=hidden;points=[[0,0.5],[1,0.5]];portConstraint=eastwest;rotatable=0;whiteSpace=wrap;html=1;" vertex="1" parent="hnTLKuGMeIEtejeQrIIj-15">
          <mxGeometry y="30" width="120" height="30" as="geometry" />
        </mxCell>
        <mxCell id="hnTLKuGMeIEtejeQrIIj-17" value="makeJob&amp;nbsp; &amp;nbsp;boolean" style="text;strokeColor=none;fillColor=none;align=left;verticalAlign=middle;spacingLeft=4;spacingRight=4;overflow=hidden;points=[[0,0.5],[1,0.5]];portConstraint=eastwest;rotatable=0;whiteSpace=wrap;html=1;" vertex="1" parent="hnTLKuGMeIEtejeQrIIj-15">
          <mxGeometry y="60" width="120" height="30" as="geometry" />
        </mxCell>
        <mxCell id="hnTLKuGMeIEtejeQrIIj-18" value="getMakeJob()" style="text;strokeColor=none;fillColor=none;align=left;verticalAlign=middle;spacingLeft=4;spacingRight=4;overflow=hidden;points=[[0,0.5],[1,0.5]];portConstraint=eastwest;rotatable=0;whiteSpace=wrap;html=1;" vertex="1" parent="hnTLKuGMeIEtejeQrIIj-15">
          <mxGeometry y="90" width="120" height="30" as="geometry" />
        </mxCell>
        <mxCell id="hnTLKuGMeIEtejeQrIIj-29" value="" style="endArrow=classic;html=1;rounded=0;exitX=1.008;exitY=0;exitDx=0;exitDy=0;exitPerimeter=0;entryX=-0.017;entryY=0;entryDx=0;entryDy=0;entryPerimeter=0;" edge="1" parent="1" source="hnTLKuGMeIEtejeQrIIj-6" target="hnTLKuGMeIEtejeQrIIj-12">
          <mxGeometry width="50" height="50" relative="1" as="geometry">
            <mxPoint x="390" y="310" as="sourcePoint" />
            <mxPoint x="440" y="260" as="targetPoint" />
          </mxGeometry>
        </mxCell>
        <mxCell id="hnTLKuGMeIEtejeQrIIj-30" value="" style="endArrow=classic;html=1;rounded=0;exitX=-0.008;exitY=0;exitDx=0;exitDy=0;exitPerimeter=0;entryX=1.017;entryY=0;entryDx=0;entryDy=0;entryPerimeter=0;" edge="1" parent="1" source="hnTLKuGMeIEtejeQrIIj-6" target="hnTLKuGMeIEtejeQrIIj-14">
          <mxGeometry width="50" height="50" relative="1" as="geometry">
            <mxPoint x="490.96000000000004" y="400" as="sourcePoint" />
            <mxPoint x="567.96" y="400" as="targetPoint" />
          </mxGeometry>
        </mxCell>
      </root>
    </mxGraphModel>
  </diagram>
</mxfile>
